0
SECTION
2
HEADER
9
$INSUNITS
70
4
0
ENDSEC
0
SECTION
2
TABLES
0
TABLE
2
LTYPE
0
LTYPE
72
65
70
0
2
CONTINUOUS
3
______
73
0
40
0
0
LTYPE
72
65
70
0
2
DASHED
3
_ _ _ 
73
2
40
7.5
49
5
49
-2.5
0
LTYPE
72
65
70
0
2
DOTTED
3
. . . 
73
2
40
1.5
49
0.5
49
-1
0
ENDTAB
0
TABLE
2
LAYER
0
ENDTAB
0
ENDSEC
0
SECTION
2
ENTITIES
0
LINE
8
0
6
CONTINUOUS
10
29.5738966
20
7.3004362
11
47.3004362
21
10.4261034
0
LINE
8
0
6
CONTINUOUS
10
47.3004362
20
10.4261034
11
50.4261034
21
-7.3004362
0
LINE
8
0
6
CONTINUOUS
10
50.4261034
20
-7.3004362
11
32.6995638
21
-10.4261034
0
LINE
8
0
6
CONTINUOUS
10
32.6995638
20
-10.4261034
11
29.5738966
21
7.3004362
0
LINE
8
0
6
CONTINUOUS
10
26.2745812
20
26.0117835
11
44.0011208
21
29.1374507
0
LINE
8
0
6
CONTINUOUS
10
44.0011208
20
29.1374507
11
47.126788
21
11.4109111
0
LINE
8
0
6
CONTINUOUS
10
47.126788
20
11.4109111
11
29.4002484
21
8.2852439
0
LINE
8
0
6
CONTINUOUS
10
29.4002484
20
8.2852439
11
26.2745812
21
26.0117835
0
LINE
8
0
6
CONTINUOUS
10
22.9752658
20
44.7231308
11
40.7018054
21
47.848798
0
LINE
8
0
6
CONTINUOUS
10
40.7018054
20
47.848798
11
43.8274726
21
30.1222584
0
LINE
8
0
6
CONTINUOUS
10
43.8274726
20
30.1222584
11
26.100933
21
26.9965912
0
LINE
8
0
6
CONTINUOUS
10
26.100933
20
26.9965912
11
22.9752658
21
44.7231308
0
LINE
8
0
6
CONTINUOUS
10
19.6759504
20
63.4344781
11
37.40249
21
66.5601453
0
LINE
8
0
6
CONTINUOUS
10
37.40249
20
66.5601453
11
40.5281572
21
48.8336057
0
LINE
8
0
6
CONTINUOUS
10
40.5281572
20
48.8336057
11
22.8016176
21
45.7079385
0
LINE
8
0
6
CONTINUOUS
10
22.8016176
20
45.7079385
11
19.6759504
21
63.4344781
0
LINE
8
0
6
CONTINUOUS
10
49.580489
20
14.6693497
11
67.4053142
21
17.1744655
0
LINE
8
0
6
CONTINUOUS
10
67.4053142
20
17.1744655
11
69.91043
21
-0.6503597
0
LINE
8
0
6
CONTINUOUS
10
69.91043
20
-0.6503597
11
52.0856048
21
-3.1554755
0
LINE
8
0
6
CONTINUOUS
10
52.0856048
20
-3.1554755
11
49.580489
21
14.6693497
0
LINE
8
0
6
CONTINUOUS
10
46.9362001
20
33.484443
11
64.7610253
21
35.9895588
0
LINE
8
0
6
CONTINUOUS
10
64.7610253
20
35.9895588
11
67.2661411
21
18.1647336
0
LINE
8
0
6
CONTINUOUS
10
67.2661411
20
18.1647336
11
49.4413159
21
15.6596178
0
LINE
8
0
6
CONTINUOUS
10
49.4413159
20
15.6596178
11
46.9362001
21
33.484443
0
LINE
8
0
6
CONTINUOUS
10
44.2919112
20
52.2995363
11
62.1167364
21
54.8046521
0
LINE
8
0
6
CONTINUOUS
10
62.1167364
20
54.8046521
11
64.6218522
21
36.9798269
0
LINE
8
0
6
CONTINUOUS
10
64.6218522
20
36.9798269
11
46.797027
21
34.4747111
0
LINE
8
0
6
CONTINUOUS
10
46.797027
20
34.4747111
11
44.2919112
21
52.2995363
0
LINE
8
0
6
CONTINUOUS
10
41.6476223
20
71.1146296
11
59.4724475
21
73.6197454
0
LINE
8
0
6
CONTINUOUS
10
59.4724475
20
73.6197454
11
61.9775633
21
55.7949202
0
LINE
8
0
6
CONTINUOUS
10
61.9775633
20
55.7949202
11
44.1527381
21
53.2898044
0
LINE
8
0
6
CONTINUOUS
10
44.1527381
20
53.2898044
11
41.6476223
21
71.1146296
0
LINE
8
0
6
CONTINUOUS
10
69.8320653
20
21.3355543
11
87.7334594
21
23.2170666
0
LINE
8
0
6
CONTINUOUS
10
87.7334594
20
23.2170666
11
89.6149717
21
5.3156725
0
LINE
8
0
6
CONTINUOUS
10
89.6149717
20
5.3156725
11
71.7135776
21
3.4341602
0
LINE
8
0
6
CONTINUOUS
10
71.7135776
20
3.4341602
11
69.8320653
21
21.3355543
0
LINE
8
0
6
CONTINUOUS
10
67.8460245
20
40.2314703
11
85.7474186
21
42.1129826
0
LINE
8
0
6
CONTINUOUS
10
85.7474186
20
42.1129826
11
87.6289309
21
24.2115885
0
LINE
8
0
6
CONTINUOUS
10
87.6289309
20
24.2115885
11
69.7275368
21
22.3300762
0
LINE
8
0
6
CONTINUOUS
10
69.7275368
20
22.3300762
11
67.8460245
21
40.2314703
0
LINE
8
0
6
CONTINUOUS
10
65.8599837
20
59.1273863
11
83.7613778
21
61.0088986
0
LINE
8
0
6
CONTINUOUS
10
83.7613778
20
61.0088986
11
85.6428901
21
43.1075045
0
LINE
8
0
6
CONTINUOUS
10
85.6428901
20
43.1075045
11
67.741496
21
41.2259922
0
LINE
8
0
6
CONTINUOUS
10
67.741496
20
41.2259922
11
65.8599837
21
59.1273863
0
LINE
8
0
6
CONTINUOUS
10
63.8739429
20
78.0233023
11
81.775337
21
79.9048146
0
LINE
8
0
6
CONTINUOUS
10
81.775337
20
79.9048146
11
83.6568493
21
62.0034205
0
LINE
8
0
6
CONTINUOUS
10
83.6568493
20
62.0034205
11
65.7554552
21
60.1219082
0
LINE
8
0
6
CONTINUOUS
10
65.7554552
20
60.1219082
11
63.8739429
21
78.0233023
0
LINE
8
0
6
CONTINUOUS
10
90.303952
20
27.2909281
11
108.2601049
21
28.5465446
0
LINE
8
0
6
CONTINUOUS
10
108.2601049
20
28.5465446
11
109.5157214
21
10.5903917
0
LINE
8
0
6
CONTINUOUS
10
109.5157214
20
10.5903917
11
91.5595685
21
9.3347752
0
LINE
8
0
6
CONTINUOUS
10
91.5595685
20
9.3347752
11
90.303952
21
27.2909281
0
LINE
8
0
6
CONTINUOUS
10
88.978579
20
46.2446451
11
106.9347319
21
47.5002616
0
LINE
8
0
6
CONTINUOUS
10
106.9347319
20
47.5002616
11
108.1903484
21
29.5441087
0
LINE
8
0
6
CONTINUOUS
10
108.1903484
20
29.5441087
11
90.2341955
21
28.2884922
0
LINE
8
0
6
CONTINUOUS
10
90.2341955
20
28.2884922
11
88.978579
21
46.2446451
0
LINE
8
0
6
CONTINUOUS
10
87.653206
20
65.1983621
11
105.6093589
21
66.4539786
0
LINE
8
0
6
CONTINUOUS
10
105.6093589
20
66.4539786
11
106.8649754
21
48.4978257
0
LINE
8
0
6
CONTINUOUS
10
106.8649754
20
48.4978257
11
88.9088225
21
47.2422092
0
LINE
8
0
6
CONTINUOUS
10
88.9088225
20
47.2422092
11
87.653206
21
65.1983621
0
LINE
8
0
6
CONTINUOUS
10
86.327833
20
84.1520791
11
104.2839859
21
85.4076956
0
LINE
8
0
6
CONTINUOUS
10
104.2839859
20
85.4076956
11
105.5396024
21
67.4515427
0
LINE
8
0
6
CONTINUOUS
10
105.5396024
20
67.4515427
11
87.5834495
21
66.1959262
0
LINE
8
0
6
CONTINUOUS
10
87.5834495
20
66.1959262
11
86.327833
21
84.1520791
0
LINE
8
0
6
CONTINUOUS
10
111.5013566
20
24.9467287
11
129.4903915
21
25.5749196
0
LINE
8
0
6
CONTINUOUS
10
129.4903915
20
25.5749196
11
130.1185824
21
7.5858847
0
LINE
8
0
6
CONTINUOUS
10
130.1185824
20
7.5858847
11
112.1295475
21
6.9576938
0
LINE
8
0
6
CONTINUOUS
10
112.1295475
20
6.9576938
11
111.5013566
21
24.9467287
0
LINE
8
0
6
CONTINUOUS
10
110.8382662
20
43.9351544
11
128.8273011
21
44.5633453
0
LINE
8
0
6
CONTINUOUS
10
128.8273011
20
44.5633453
11
129.455492
21
26.5743104
0
LINE
8
0
6
CONTINUOUS
10
129.455492
20
26.5743104
11
111.4664571
21
25.9461195
0
LINE
8
0
6
CONTINUOUS
10
111.4664571
20
25.9461195
11
110.8382662
21
43.9351544
0
LINE
8
0
6
CONTINUOUS
10
110.1751758
20
62.9235801
11
128.1642107
21
63.551771
0
LINE
8
0
6
CONTINUOUS
10
128.1642107
20
63.551771
11
128.7924016
21
45.5627361
0
LINE
8
0
6
CONTINUOUS
10
128.7924016
20
45.5627361
11
110.8033667
21
44.9345452
0
LINE
8
0
6
CONTINUOUS
10
110.8033667
20
44.9345452
11
110.1751758
21
62.9235801
0
LINE
8
0
6
CONTINUOUS
10
109.5120854
20
81.9120058
11
127.5011203
21
82.5401967
0
LINE
8
0
6
CONTINUOUS
10
127.5011203
20
82.5401967
11
128.1293112
21
64.5511618
0
LINE
8
0
6
CONTINUOUS
10
128.1293112
20
64.5511618
11
110.1402763
21
63.9229709
0
LINE
8
0
6
CONTINUOUS
10
110.1402763
20
63.9229709
11
109.5120854
21
81.9120058
0
LINE
8
0
6
CONTINUOUS
10
132.6040368
20
21.8641787
11
150.6040368
21
21.8641787
0
LINE
8
0
6
CONTINUOUS
10
150.6040368
20
21.8641787
11
150.6040368
21
3.8641787
0
LINE
8
0
6
CONTINUOUS
10
150.6040368
20
3.8641787
11
132.6040368
21
3.8641787
0
LINE
8
0
6
CONTINUOUS
10
132.6040368
20
3.8641787
11
132.6040368
21
21.8641787
0
LINE
8
0
6
CONTINUOUS
10
132.6040368
20
59.8641787
11
150.6040368
21
59.8641787
0
LINE
8
0
6
CONTINUOUS
10
150.6040368
20
59.8641787
11
150.6040368
21
41.8641787
0
LINE
8
0
6
CONTINUOUS
10
150.6040368
20
41.8641787
11
132.6040368
21
41.8641787
0
LINE
8
0
6
CONTINUOUS
10
132.6040368
20
41.8641787
11
132.6040368
21
59.8641787
0
LINE
8
0
6
CONTINUOUS
10
132.6040368
20
78.8641787
11
150.6040368
21
78.8641787
0
LINE
8
0
6
CONTINUOUS
10
150.6040368
20
78.8641787
11
150.6040368
21
60.8641787
0
LINE
8
0
6
CONTINUOUS
10
150.6040368
20
60.8641787
11
132.6040368
21
60.8641787
0
LINE
8
0
6
CONTINUOUS
10
132.6040368
20
60.8641787
11
132.6040368
21
78.8641787
0
LINE
8
0
6
CONTINUOUS
10
153.6040368
20
21.8641786
11
189.6040368
21
21.8641786
0
LINE
8
0
6
CONTINUOUS
10
189.6040368
20
21.8641786
11
189.6040368
21
3.8641786
0
LINE
8
0
6
CONTINUOUS
10
189.6040368
20
3.8641786
11
153.6040368
21
3.8641786
0
LINE
8
0
6
CONTINUOUS
10
153.6040368
20
3.8641786
11
153.6040368
21
21.8641786
0
LINE
8
0
6
CONTINUOUS
10
132.6040368
20
40.8641786
11
189.6040368
21
40.8641786
0
LINE
8
0
6
CONTINUOUS
10
189.6040368
20
40.8641786
11
189.6040368
21
22.8641786
0
LINE
8
0
6
CONTINUOUS
10
189.6040368
20
22.8641786
11
132.6040368
21
22.8641786
0
LINE
8
0
6
CONTINUOUS
10
132.6040368
20
22.8641786
11
132.6040368
21
40.8641786
0
LINE
8
0
6
CONTINUOUS
10
153.6040368
20
59.8641786
11
189.6040368
21
59.8641786
0
LINE
8
0
6
CONTINUOUS
10
189.6040368
20
59.8641786
11
189.6040368
21
41.8641786
0
LINE
8
0
6
CONTINUOUS
10
189.6040368
20
41.8641786
11
153.6040368
21
41.8641786
0
LINE
8
0
6
CONTINUOUS
10
153.6040368
20
41.8641786
11
153.6040368
21
59.8641786
0
LINE
8
0
6
CONTINUOUS
10
153.6040368
20
78.8641786
11
189.6040368
21
78.8641786
0
LINE
8
0
6
CONTINUOUS
10
189.6040368
20
78.8641786
11
189.6040368
21
60.8641786
0
LINE
8
0
6
CONTINUOUS
10
189.6040368
20
60.8641786
11
153.6040368
21
60.8641786
0
LINE
8
0
6
CONTINUOUS
10
153.6040368
20
60.8641786
11
153.6040368
21
78.8641786
0
LINE
8
0
6
CONTINUOUS
10
-18.8004362
20
10.4261034
11
-1.0738966
21
7.3004362
0
LINE
8
0
6
CONTINUOUS
10
-1.0738966
20
7.3004362
11
-4.1995638
21
-10.4261034
0
LINE
8
0
6
CONTINUOUS
10
-4.1995638
20
-10.4261034
11
-21.9261034
21
-7.3004362
0
LINE
8
0
6
CONTINUOUS
10
-21.9261034
20
-7.3004362
11
-18.8004362
21
10.4261034
0
LINE
8
0
6
CONTINUOUS
10
-15.5011208
20
29.1374507
11
2.2254188
21
26.0117835
0
LINE
8
0
6
CONTINUOUS
10
2.2254188
20
26.0117835
11
-0.9002484
21
8.2852439
0
LINE
8
0
6
CONTINUOUS
10
-0.9002484
20
8.2852439
11
-18.626788
21
11.4109111
0
LINE
8
0
6
CONTINUOUS
10
-18.626788
20
11.4109111
11
-15.5011208
21
29.1374507
0
LINE
8
0
6
CONTINUOUS
10
-12.2018054
20
47.848798
11
5.5247342
21
44.7231308
0
LINE
8
0
6
CONTINUOUS
10
5.5247342
20
44.7231308
11
2.399067
21
26.9965912
0
LINE
8
0
6
CONTINUOUS
10
2.399067
20
26.9965912
11
-15.3274726
21
30.1222584
0
LINE
8
0
6
CONTINUOUS
10
-15.3274726
20
30.1222584
11
-12.2018054
21
47.848798
0
LINE
8
0
6
CONTINUOUS
10
-8.90249
20
66.5601453
11
8.8240496
21
63.4344781
0
LINE
8
0
6
CONTINUOUS
10
8.8240496
20
63.4344781
11
5.6983824
21
45.7079385
0
LINE
8
0
6
CONTINUOUS
10
5.6983824
20
45.7079385
11
-12.0281572
21
48.8336057
0
LINE
8
0
6
CONTINUOUS
10
-12.0281572
20
48.8336057
11
-8.90249
21
66.5601453
0
LINE
8
0
6
CONTINUOUS
10
-38.9053142
20
17.1744655
11
-21.080489
21
14.6693497
0
LINE
8
0
6
CONTINUOUS
10
-21.080489
20
14.6693497
11
-23.5856048
21
-3.1554755
0
LINE
8
0
6
CONTINUOUS
10
-23.5856048
20
-3.1554755
11
-41.41043
21
-0.6503597
0
LINE
8
0
6
CONTINUOUS
10
-41.41043
20
-0.6503597
11
-38.9053142
21
17.1744655
0
LINE
8
0
6
CONTINUOUS
10
-36.2610253
20
35.9895588
11
-18.4362001
21
33.484443
0
LINE
8
0
6
CONTINUOUS
10
-18.4362001
20
33.484443
11
-20.9413159
21
15.6596178
0
LINE
8
0
6
CONTINUOUS
10
-20.9413159
20
15.6596178
11
-38.7661411
21
18.1647336
0
LINE
8
0
6
CONTINUOUS
10
-38.7661411
20
18.1647336
11
-36.2610253
21
35.9895588
0
LINE
8
0
6
CONTINUOUS
10
-33.6167364
20
54.8046521
11
-15.7919112
21
52.2995363
0
LINE
8
0
6
CONTINUOUS
10
-15.7919112
20
52.2995363
11
-18.297027
21
34.4747111
0
LINE
8
0
6
CONTINUOUS
10
-18.297027
20
34.4747111
11
-36.1218522
21
36.9798269
0
LINE
8
0
6
CONTINUOUS
10
-36.1218522
20
36.9798269
11
-33.6167364
21
54.8046521
0
LINE
8
0
6
CONTINUOUS
10
-30.9724475
20
73.6197454
11
-13.1476223
21
71.1146296
0
LINE
8
0
6
CONTINUOUS
10
-13.1476223
20
71.1146296
11
-15.6527381
21
53.2898044
0
LINE
8
0
6
CONTINUOUS
10
-15.6527381
20
53.2898044
11
-33.4775633
21
55.7949202
0
LINE
8
0
6
CONTINUOUS
10
-33.4775633
20
55.7949202
11
-30.9724475
21
73.6197454
0
LINE
8
0
6
CONTINUOUS
10
-59.2334594
20
23.2170666
11
-41.3320653
21
21.3355543
0
LINE
8
0
6
CONTINUOUS
10
-41.3320653
20
21.3355543
11
-43.2135776
21
3.4341602
0
LINE
8
0
6
CONTINUOUS
10
-43.2135776
20
3.4341602
11
-61.1149717
21
5.3156725
0
LINE
8
0
6
CONTINUOUS
10
-61.1149717
20
5.3156725
11
-59.2334594
21
23.2170666
0
LINE
8
0
6
CONTINUOUS
10
-57.2474186
20
42.1129826
11
-39.3460245
21
40.2314703
0
LINE
8
0
6
CONTINUOUS
10
-39.3460245
20
40.2314703
11
-41.2275368
21
22.3300762
0
LINE
8
0
6
CONTINUOUS
10
-41.2275368
20
22.3300762
11
-59.1289309
21
24.2115885
0
LINE
8
0
6
CONTINUOUS
10
-59.1289309
20
24.2115885
11
-57.2474186
21
42.1129826
0
LINE
8
0
6
CONTINUOUS
10
-55.2613778
20
61.0088986
11
-37.3599837
21
59.1273863
0
LINE
8
0
6
CONTINUOUS
10
-37.3599837
20
59.1273863
11
-39.241496
21
41.2259922
0
LINE
8
0
6
CONTINUOUS
10
-39.241496
20
41.2259922
11
-57.1428901
21
43.1075045
0
LINE
8
0
6
CONTINUOUS
10
-57.1428901
20
43.1075045
11
-55.2613778
21
61.0088986
0
LINE
8
0
6
CONTINUOUS
10
-53.275337
20
79.9048146
11
-35.3739429
21
78.0233023
0
LINE
8
0
6
CONTINUOUS
10
-35.3739429
20
78.0233023
11
-37.2554552
21
60.1219082
0
LINE
8
0
6
CONTINUOUS
10
-37.2554552
20
60.1219082
11
-55.1568493
21
62.0034205
0
LINE
8
0
6
CONTINUOUS
10
-55.1568493
20
62.0034205
11
-53.275337
21
79.9048146
0
LINE
8
0
6
CONTINUOUS
10
-79.7601049
20
28.5465446
11
-61.803952
21
27.2909281
0
LINE
8
0
6
CONTINUOUS
10
-61.803952
20
27.2909281
11
-63.0595685
21
9.3347752
0
LINE
8
0
6
CONTINUOUS
10
-63.0595685
20
9.3347752
11
-81.0157214
21
10.5903917
0
LINE
8
0
6
CONTINUOUS
10
-81.0157214
20
10.5903917
11
-79.7601049
21
28.5465446
0
LINE
8
0
6
CONTINUOUS
10
-78.4347319
20
47.5002616
11
-60.478579
21
46.2446451
0
LINE
8
0
6
CONTINUOUS
10
-60.478579
20
46.2446451
11
-61.7341955
21
28.2884922
0
LINE
8
0
6
CONTINUOUS
10
-61.7341955
20
28.2884922
11
-79.6903484
21
29.5441087
0
LINE
8
0
6
CONTINUOUS
10
-79.6903484
20
29.5441087
11
-78.4347319
21
47.5002616
0
LINE
8
0
6
CONTINUOUS
10
-77.1093589
20
66.4539786
11
-59.153206
21
65.1983621
0
LINE
8
0
6
CONTINUOUS
10
-59.153206
20
65.1983621
11
-60.4088225
21
47.2422092
0
LINE
8
0
6
CONTINUOUS
10
-60.4088225
20
47.2422092
11
-78.3649754
21
48.4978257
0
LINE
8
0
6
CONTINUOUS
10
-78.3649754
20
48.4978257
11
-77.1093589
21
66.4539786
0
LINE
8
0
6
CONTINUOUS
10
-75.7839859
20
85.4076956
11
-57.827833
21
84.1520791
0
LINE
8
0
6
CONTINUOUS
10
-57.827833
20
84.1520791
11
-59.0834495
21
66.1959262
0
LINE
8
0
6
CONTINUOUS
10
-59.0834495
20
66.1959262
11
-77.0396024
21
67.4515427
0
LINE
8
0
6
CONTINUOUS
10
-77.0396024
20
67.4515427
11
-75.7839859
21
85.4076956
0
LINE
8
0
6
CONTINUOUS
10
-100.9903915
20
25.5749196
11
-83.0013566
21
24.9467287
0
LINE
8
0
6
CONTINUOUS
10
-83.0013566
20
24.9467287
11
-83.6295475
21
6.9576938
0
LINE
8
0
6
CONTINUOUS
10
-83.6295475
20
6.9576938
11
-101.6185824
21
7.5858847
0
LINE
8
0
6
CONTINUOUS
10
-101.6185824
20
7.5858847
11
-100.9903915
21
25.5749196
0
LINE
8
0
6
CONTINUOUS
10
-100.3273011
20
44.5633453
11
-82.3382662
21
43.9351544
0
LINE
8
0
6
CONTINUOUS
10
-82.3382662
20
43.9351544
11
-82.9664571
21
25.9461195
0
LINE
8
0
6
CONTINUOUS
10
-82.9664571
20
25.9461195
11
-100.955492
21
26.5743104
0
LINE
8
0
6
CONTINUOUS
10
-100.955492
20
26.5743104
11
-100.3273011
21
44.5633453
0
LINE
8
0
6
CONTINUOUS
10
-99.6642107
20
63.551771
11
-81.6751758
21
62.9235801
0
LINE
8
0
6
CONTINUOUS
10
-81.6751758
20
62.9235801
11
-82.3033667
21
44.9345452
0
LINE
8
0
6
CONTINUOUS
10
-82.3033667
20
44.9345452
11
-100.2924016
21
45.5627361
0
LINE
8
0
6
CONTINUOUS
10
-100.2924016
20
45.5627361
11
-99.6642107
21
63.551771
0
LINE
8
0
6
CONTINUOUS
10
-99.0011203
20
82.5401967
11
-81.0120854
21
81.9120058
0
LINE
8
0
6
CONTINUOUS
10
-81.0120854
20
81.9120058
11
-81.6402763
21
63.9229709
0
LINE
8
0
6
CONTINUOUS
10
-81.6402763
20
63.9229709
11
-99.6293112
21
64.5511618
0
LINE
8
0
6
CONTINUOUS
10
-99.6293112
20
64.5511618
11
-99.0011203
21
82.5401967
0
LINE
8
0
6
CONTINUOUS
10
-122.1040368
20
21.8641787
11
-104.1040368
21
21.8641787
0
LINE
8
0
6
CONTINUOUS
10
-104.1040368
20
21.8641787
11
-104.1040368
21
3.8641787
0
LINE
8
0
6
CONTINUOUS
10
-104.1040368
20
3.8641787
11
-122.1040368
21
3.8641787
0
LINE
8
0
6
CONTINUOUS
10
-122.1040368
20
3.8641787
11
-122.1040368
21
21.8641787
0
LINE
8
0
6
CONTINUOUS
10
-122.1040368
20
59.8641787
11
-104.1040368
21
59.8641787
0
LINE
8
0
6
CONTINUOUS
10
-104.1040368
20
59.8641787
11
-104.1040368
21
41.8641787
0
LINE
8
0
6
CONTINUOUS
10
-104.1040368
20
41.8641787
11
-122.1040368
21
41.8641787
0
LINE
8
0
6
CONTINUOUS
10
-122.1040368
20
41.8641787
11
-122.1040368
21
59.8641787
0
LINE
8
0
6
CONTINUOUS
10
-122.1040368
20
78.8641787
11
-104.1040368
21
78.8641787
0
LINE
8
0
6
CONTINUOUS
10
-104.1040368
20
78.8641787
11
-104.1040368
21
60.8641787
0
LINE
8
0
6
CONTINUOUS
10
-104.1040368
20
60.8641787
11
-122.1040368
21
60.8641787
0
LINE
8
0
6
CONTINUOUS
10
-122.1040368
20
60.8641787
11
-122.1040368
21
78.8641787
0
LINE
8
0
6
CONTINUOUS
10
-161.1040368
20
21.8641786
11
-125.1040368
21
21.8641786
0
LINE
8
0
6
CONTINUOUS
10
-125.1040368
20
21.8641786
11
-125.1040368
21
3.8641786
0
LINE
8
0
6
CONTINUOUS
10
-125.1040368
20
3.8641786
11
-161.1040368
21
3.8641786
0
LINE
8
0
6
CONTINUOUS
10
-161.1040368
20
3.8641786
11
-161.1040368
21
21.8641786
0
LINE
8
0
6
CONTINUOUS
10
-161.1040368
20
40.8641786
11
-104.1040368
21
40.8641786
0
LINE
8
0
6
CONTINUOUS
10
-104.1040368
20
40.8641786
11
-104.1040368
21
22.8641786
0
LINE
8
0
6
CONTINUOUS
10
-104.1040368
20
22.8641786
11
-161.1040368
21
22.8641786
0
LINE
8
0
6
CONTINUOUS
10
-161.1040368
20
22.8641786
11
-161.1040368
21
40.8641786
0
LINE
8
0
6
CONTINUOUS
10
-161.1040368
20
59.8641786
11
-125.1040368
21
59.8641786
0
LINE
8
0
6
CONTINUOUS
10
-125.1040368
20
59.8641786
11
-125.1040368
21
41.8641786
0
LINE
8
0
6
CONTINUOUS
10
-125.1040368
20
41.8641786
11
-161.1040368
21
41.8641786
0
LINE
8
0
6
CONTINUOUS
10
-161.1040368
20
41.8641786
11
-161.1040368
21
59.8641786
0
LINE
8
0
6
CONTINUOUS
10
-161.1040368
20
78.8641786
11
-125.1040368
21
78.8641786
0
LINE
8
0
6
CONTINUOUS
10
-125.1040368
20
78.8641786
11
-125.1040368
21
60.8641786
0
LINE
8
0
6
CONTINUOUS
10
-125.1040368
20
60.8641786
11
-161.1040368
21
60.8641786
0
LINE
8
0
6
CONTINUOUS
10
-161.1040368
20
60.8641786
11
-161.1040368
21
78.8641786
0
LINE
8
0
6
CONTINUOUS
10
17.5795609
20
80.0228093
11
35.5548925
21
80.9648565
0
LINE
8
0
6
CONTINUOUS
10
35.5548925
20
80.9648565
11
36.0259161
21
71.9771907
0
LINE
8
0
6
CONTINUOUS
10
36.0259161
20
71.9771907
11
18.0505845
21
71.0351435
0
LINE
8
0
6
CONTINUOUS
10
18.0505845
20
71.0351435
11
17.5795609
21
80.0228093
0
LINE
8
0
6
CONTINUOUS
10
40.0753789
20
85.9811245
11
57.976773
21
87.8626368
0
LINE
8
0
6
CONTINUOUS
10
57.976773
20
87.8626368
11
58.9175291
21
78.9119397
0
LINE
8
0
6
CONTINUOUS
10
58.9175291
20
78.9119397
11
41.016135
21
77.0304274
0
LINE
8
0
6
CONTINUOUS
10
41.016135
20
77.0304274
11
40.0753789
21
85.9811245
0
LINE
8
0
6
CONTINUOUS
10
62.5985056
20
94.094736
11
80.5738372
21
95.0367832
0
LINE
8
0
6
CONTINUOUS
10
80.5738372
20
95.0367832
11
81.0448608
21
86.0491174
0
LINE
8
0
6
CONTINUOUS
10
81.0448608
20
86.0491174
11
63.0695292
21
85.1070702
0
LINE
8
0
6
CONTINUOUS
10
63.0695292
20
85.1070702
11
62.5985056
21
94.094736
0
LINE
8
0
6
CONTINUOUS
10
85.7901625
20
95.7756536
11
103.7901625
21
95.7756536
0
LINE
8
0
6
CONTINUOUS
10
103.7901625
20
95.7756536
11
103.7901625
21
86.7756536
0
LINE
8
0
6
CONTINUOUS
10
103.7901625
20
86.7756536
11
85.7901625
21
86.7756536
0
LINE
8
0
6
CONTINUOUS
10
85.7901625
20
86.7756536
11
85.7901625
21
95.7756536
0
LINE
8
0
6
CONTINUOUS
10
109.0380085
20
94.4905101
11
127.0133401
21
93.5484629
0
LINE
8
0
6
CONTINUOUS
10
127.0133401
20
93.5484629
11
126.5423165
21
84.5607971
0
LINE
8
0
6
CONTINUOUS
10
126.5423165
20
84.5607971
11
108.5669849
21
85.5028443
0
LINE
8
0
6
CONTINUOUS
10
108.5669849
20
85.5028443
11
109.0380085
21
94.4905101
0
LINE
8
0
6
CONTINUOUS
10
131.9148999
20
91.5391815
11
149.8902315
21
90.5971343
0
LINE
8
0
6
CONTINUOUS
10
149.8902315
20
90.5971343
11
149.4192079
21
81.6094685
0
LINE
8
0
6
CONTINUOUS
10
149.4192079
20
81.6094685
11
131.4438763
21
82.5515157
0
LINE
8
0
6
CONTINUOUS
10
131.4438763
20
82.5515157
11
131.9148999
21
91.5391815
0
LINE
8
0
6
CONTINUOUS
10
154.6355332
20
89.8705979
11
172.6355332
21
89.8705979
0
LINE
8
0
6
CONTINUOUS
10
172.6355332
20
89.8705979
11
172.6355332
21
80.8705979
0
LINE
8
0
6
CONTINUOUS
10
172.6355332
20
80.8705979
11
154.6355332
21
80.8705979
0
LINE
8
0
6
CONTINUOUS
10
154.6355332
20
80.8705979
11
154.6355332
21
89.8705979
0
LINE
8
0
6
CONTINUOUS
10
-7.0548925
20
80.9648565
11
10.9204391
21
80.0228093
0
LINE
8
0
6
CONTINUOUS
10
10.9204391
20
80.0228093
11
10.4494155
21
71.0351435
0
LINE
8
0
6
CONTINUOUS
10
10.4494155
20
71.0351435
11
-7.5259161
21
71.9771907
0
LINE
8
0
6
CONTINUOUS
10
-7.5259161
20
71.9771907
11
-7.0548925
21
80.9648565
0
LINE
8
0
6
CONTINUOUS
10
-29.476773
20
87.8626368
11
-11.5753789
21
85.9811245
0
LINE
8
0
6
CONTINUOUS
10
-11.5753789
20
85.9811245
11
-12.516135
21
77.0304274
0
LINE
8
0
6
CONTINUOUS
10
-12.516135
20
77.0304274
11
-30.4175291
21
78.9119397
0
LINE
8
0
6
CONTINUOUS
10
-30.4175291
20
78.9119397
11
-29.476773
21
87.8626368
0
LINE
8
0
6
CONTINUOUS
10
-52.0738372
20
95.0367832
11
-34.0985056
21
94.094736
0
LINE
8
0
6
CONTINUOUS
10
-34.0985056
20
94.094736
11
-34.5695292
21
85.1070702
0
LINE
8
0
6
CONTINUOUS
10
-34.5695292
20
85.1070702
11
-52.5448608
21
86.0491174
0
LINE
8
0
6
CONTINUOUS
10
-52.5448608
20
86.0491174
11
-52.0738372
21
95.0367832
0
LINE
8
0
6
CONTINUOUS
10
-75.2901625
20
95.7756536
11
-57.2901625
21
95.7756536
0
LINE
8
0
6
CONTINUOUS
10
-57.2901625
20
95.7756536
11
-57.2901625
21
86.7756536
0
LINE
8
0
6
CONTINUOUS
10
-57.2901625
20
86.7756536
11
-75.2901625
21
86.7756536
0
LINE
8
0
6
CONTINUOUS
10
-75.2901625
20
86.7756536
11
-75.2901625
21
95.7756536
0
LINE
8
0
6
CONTINUOUS
10
-98.5133401
20
93.5484629
11
-80.5380085
21
94.4905101
0
LINE
8
0
6
CONTINUOUS
10
-80.5380085
20
94.4905101
11
-80.0669849
21
85.5028443
0
LINE
8
0
6
CONTINUOUS
10
-80.0669849
20
85.5028443
11
-98.0423165
21
84.5607971
0
LINE
8
0
6
CONTINUOUS
10
-98.0423165
20
84.5607971
11
-98.5133401
21
93.5484629
0
LINE
8
0
6
CONTINUOUS
10
-121.3902315
20
90.5971343
11
-103.4148999
21
91.5391815
0
LINE
8
0
6
CONTINUOUS
10
-103.4148999
20
91.5391815
11
-102.9438763
21
82.5515157
0
LINE
8
0
6
CONTINUOUS
10
-102.9438763
20
82.5515157
11
-120.9192079
21
81.6094685
0
LINE
8
0
6
CONTINUOUS
10
-120.9192079
20
81.6094685
11
-121.3902315
21
90.5971343
0
LINE
8
0
6
CONTINUOUS
10
-144.1355332
20
89.8705979
11
-126.1355332
21
89.8705979
0
LINE
8
0
6
CONTINUOUS
10
-126.1355332
20
89.8705979
11
-126.1355332
21
80.8705979
0
LINE
8
0
6
CONTINUOUS
10
-126.1355332
20
80.8705979
11
-144.1355332
21
80.8705979
0
LINE
8
0
6
CONTINUOUS
10
-144.1355332
20
80.8705979
11
-144.1355332
21
89.8705979
0
LINE
8
0
6
CONTINUOUS
10
60.9050771
20
-16.9636359
11
87.8393064
21
-15.0802112
0
LINE
8
0
6
CONTINUOUS
10
87.8393064
20
-15.0802112
11
89.0949229
21
-33.0363641
0
LINE
8
0
6
CONTINUOUS
10
89.0949229
20
-33.0363641
11
62.1606936
21
-34.9197888
0
LINE
8
0
6
CONTINUOUS
10
62.1606936
20
-34.9197888
11
60.9050771
21
-16.9636359
0
LINE
8
0
6
CONTINUOUS
10
93.4780714
20
-14.6494574
11
120.2153092
21
-10.8917837
0
LINE
8
0
6
CONTINUOUS
10
120.2153092
20
-10.8917837
11
122.720425
21
-28.716609
0
LINE
8
0
6
CONTINUOUS
10
122.720425
20
-28.716609
11
95.9831872
21
-32.4742827
0
LINE
8
0
6
CONTINUOUS
10
95.9831872
20
-32.4742827
11
93.4780714
21
-14.6494574
0
LINE
8
0
6
CONTINUOUS
10
125.8648327
20
-10.3780626
11
161.0781463
21
-2.8932418
0
LINE
8
0
6
CONTINUOUS
10
161.0781463
20
-2.8932418
11
164.8205567
21
-20.4998986
0
LINE
8
0
6
CONTINUOUS
10
164.8205567
20
-20.4998986
11
129.6072431
21
-27.9847194
0
LINE
8
0
6
CONTINUOUS
10
129.6072431
20
-27.9847194
11
125.8648327
21
-10.3780626
0
LINE
8
0
6
CONTINUOUS
10
-59.3393064
20
-15.0802112
11
-32.4050771
21
-16.9636359
0
LINE
8
0
6
CONTINUOUS
10
-32.4050771
20
-16.9636359
11
-33.6606936
21
-34.9197888
0
LINE
8
0
6
CONTINUOUS
10
-33.6606936
20
-34.9197888
11
-60.5949229
21
-33.0363641
0
LINE
8
0
6
CONTINUOUS
10
-60.5949229
20
-33.0363641
11
-59.3393064
21
-15.0802112
0
LINE
8
0
6
CONTINUOUS
10
-91.7153092
20
-10.8917837
11
-64.9780714
21
-14.6494574
0
LINE
8
0
6
CONTINUOUS
10
-64.9780714
20
-14.6494574
11
-67.4831872
21
-32.4742827
0
LINE
8
0
6
CONTINUOUS
10
-67.4831872
20
-32.4742827
11
-94.220425
21
-28.716609
0
LINE
8
0
6
CONTINUOUS
10
-94.220425
20
-28.716609
11
-91.7153092
21
-10.8917837
0
LINE
8
0
6
CONTINUOUS
10
-132.5781463
20
-2.8932418
11
-97.3648327
21
-10.3780626
0
LINE
8
0
6
CONTINUOUS
10
-97.3648327
20
-10.3780626
11
-101.1072431
21
-27.9847194
0
LINE
8
0
6
CONTINUOUS
10
-101.1072431
20
-27.9847194
11
-136.3205567
21
-20.4998986
0
LINE
8
0
6
CONTINUOUS
10
-136.3205567
20
-20.4998986
11
-132.5781463
21
-2.8932418
0
ENDSEC
0
EOF