<svg width="350.708mm" height="130.695mm" viewBox="0 0 350.708 130.695" xmlns="http://www.w3.org/2000/svg"><g id="svgGroup" stroke-linecap="round" fill-rule="evenodd" font-size="9pt" stroke="#000" stroke-width="0.25mm" fill="none" style="stroke:#000;stroke-width:0.25mm;fill:none"><path d="M 293.708 54.911 L 350.708 54.911 L 350.708 72.911 L 293.708 72.911 L 293.708 54.911 Z M 0 54.911 L 57 54.911 L 57 72.911 L 0 72.911 L 0 54.911 Z M 314.708 73.911 L 350.708 73.911 L 350.708 91.911 L 314.708 91.911 L 314.708 73.911 Z M 314.708 35.911 L 350.708 35.911 L 350.708 53.911 L 314.708 53.911 L 314.708 35.911 Z M 314.708 16.911 L 350.708 16.911 L 350.708 34.911 L 314.708 34.911 L 314.708 16.911 Z M 0 73.911 L 36 73.911 L 36 91.911 L 0 91.911 L 0 73.911 Z M 0 35.911 L 36 35.911 L 36 53.911 L 0 53.911 L 0 35.911 Z M 0 16.911 L 36 16.911 L 36 34.911 L 0 34.911 L 0 16.911 Z M 286.969 106.154 L 322.182 98.669 L 325.925 116.276 L 290.711 123.76 L 286.969 106.154 Z M 28.526 98.669 L 63.739 106.154 L 59.997 123.76 L 24.783 116.276 L 28.526 98.669 Z M 254.582 110.425 L 281.319 106.667 L 283.824 124.492 L 257.087 128.25 L 254.582 110.425 Z M 69.389 106.667 L 96.126 110.425 L 93.621 128.25 L 66.884 124.492 L 69.389 106.667 Z M 222.009 112.739 L 248.943 110.856 L 250.199 128.812 L 223.265 130.695 L 222.009 112.739 Z M 101.765 110.856 L 128.699 112.739 L 127.443 130.695 L 100.509 128.812 L 101.765 110.856 Z M 190.678 88.475 L 208.404 85.35 L 211.53 103.076 L 193.804 106.202 L 190.678 88.475 Z M 187.379 69.764 L 205.105 66.638 L 208.231 84.365 L 190.504 87.49 L 187.379 69.764 Z M 184.079 51.053 L 201.806 47.927 L 204.932 65.653 L 187.205 68.779 L 184.079 51.053 Z M 142.304 85.35 L 160.03 88.475 L 156.904 106.202 L 139.178 103.076 L 142.304 85.35 Z M 145.603 66.638 L 163.329 69.764 L 160.204 87.49 L 142.477 84.365 L 145.603 66.638 Z M 148.902 47.927 L 166.629 51.053 L 163.503 68.779 L 145.777 65.653 L 148.902 47.927 Z M 152.202 29.216 L 169.928 32.341 L 166.802 50.068 L 149.076 46.942 L 152.202 29.216 Z M 180.78 32.341 L 198.507 29.216 L 201.632 46.942 L 183.906 50.068 L 180.78 32.341 Z M 272.605 70.829 L 290.594 70.201 L 291.223 88.19 L 273.234 88.818 L 272.605 70.829 Z M 271.279 32.852 L 289.268 32.224 L 289.896 50.213 L 271.907 50.841 L 271.279 32.852 Z M 270.616 13.864 L 288.605 13.235 L 289.233 31.224 L 271.244 31.853 L 270.616 13.864 Z M 60.114 70.201 L 78.103 70.829 L 77.474 88.818 L 59.485 88.19 L 60.114 70.201 Z M 61.44 32.224 L 79.429 32.852 L 78.801 50.841 L 60.812 50.213 L 61.44 32.224 Z M 62.103 13.235 L 80.092 13.864 L 79.464 31.853 L 61.475 31.224 L 62.103 13.235 Z M 60.777 51.212 L 78.766 51.84 L 78.138 69.83 L 60.149 69.201 L 60.777 51.212 Z M 271.942 51.84 L 289.931 51.212 L 290.56 69.201 L 272.57 69.83 L 271.942 51.84 Z M 293.708 73.911 L 311.708 73.911 L 311.708 91.911 L 293.708 91.911 L 293.708 73.911 Z M 293.708 35.911 L 311.708 35.911 L 311.708 53.911 L 293.708 53.911 L 293.708 35.911 Z M 293.708 16.911 L 311.708 16.911 L 311.708 34.911 L 293.708 34.911 L 293.708 16.911 Z M 39 73.911 L 57 73.911 L 57 91.911 L 39 91.911 L 39 73.911 Z M 39 35.911 L 57 35.911 L 57 53.911 L 39 53.911 L 39 35.911 Z M 39 16.911 L 57 16.911 L 57 34.911 L 39 34.911 L 39 16.911 Z M 250.083 49.531 L 268.039 48.275 L 269.294 66.232 L 251.338 67.487 L 250.083 49.531 Z M 248.757 30.577 L 266.713 29.322 L 267.969 47.278 L 250.013 48.533 L 248.757 30.577 Z M 247.432 11.624 L 265.388 10.368 L 266.644 28.324 L 248.687 29.58 L 247.432 11.624 Z M 81.344 67.229 L 99.3 68.485 L 98.044 86.441 L 80.088 85.185 L 81.344 67.229 Z M 82.669 48.275 L 100.625 49.531 L 99.37 67.487 L 81.414 66.232 L 82.669 48.275 Z M 83.995 29.322 L 101.951 30.577 L 100.695 48.533 L 82.739 47.278 L 83.995 29.322 Z M 85.32 10.368 L 103.276 11.624 L 102.021 29.58 L 84.064 28.324 L 85.32 10.368 Z M 251.408 68.485 L 269.364 67.229 L 270.62 85.185 L 252.664 86.441 L 251.408 68.485 Z M 230.936 74.44 L 248.837 72.559 L 250.719 90.46 L 232.818 92.341 L 230.936 74.44 Z M 224.978 17.752 L 242.879 15.871 L 244.761 33.772 L 226.859 35.654 L 224.978 17.752 Z M 101.871 72.559 L 119.772 74.44 L 117.89 92.341 L 99.989 90.46 L 101.871 72.559 Z M 107.829 15.871 L 125.73 17.752 L 123.849 35.654 L 105.947 33.772 L 107.829 15.871 Z M 228.95 55.544 L 246.851 53.663 L 248.733 71.564 L 230.832 73.446 L 228.95 55.544 Z M 226.964 36.648 L 244.865 34.767 L 246.747 52.668 L 228.846 54.55 L 226.964 36.648 Z M 103.857 53.663 L 121.758 55.544 L 119.877 73.446 L 101.975 71.564 L 103.857 53.663 Z M 105.843 34.767 L 123.744 36.648 L 121.863 54.55 L 103.961 52.668 L 105.843 34.767 Z M 208.04 62.291 L 225.865 59.786 L 228.37 77.611 L 210.545 80.116 L 208.04 62.291 Z M 205.396 43.476 L 223.221 40.971 L 225.726 58.796 L 207.901 61.301 L 205.396 43.476 Z M 122.199 78.601 L 140.024 81.106 L 137.518 98.931 L 119.694 96.426 L 122.199 78.601 Z M 124.843 59.786 L 142.668 62.291 L 140.163 80.116 L 122.338 77.611 L 124.843 59.786 Z M 210.685 81.106 L 228.509 78.601 L 231.014 96.426 L 213.19 98.931 L 210.685 81.106 Z M 202.752 24.661 L 220.576 22.156 L 223.082 39.981 L 205.257 42.486 L 202.752 24.661 Z M 127.487 40.971 L 145.312 43.476 L 142.807 61.301 L 124.982 58.796 L 127.487 40.971 Z M 130.132 22.156 L 147.956 24.661 L 145.451 42.486 L 127.626 39.981 L 130.132 22.156 Z M 131.627 7.913 L 149.529 9.795 L 148.588 18.745 L 130.687 16.864 L 131.627 7.913 Z M 201.179 9.795 L 219.081 7.913 L 220.022 16.864 L 202.12 18.745 L 201.179 9.795 Z M 246.894 0 L 264.894 0 L 264.894 9 L 246.894 9 L 246.894 0 Z M 315.74 5.905 L 333.74 5.905 L 333.74 14.905 L 315.74 14.905 L 315.74 5.905 Z M 85.814 0 L 103.814 0 L 103.814 9 L 85.814 9 L 85.814 0 Z M 16.969 5.905 L 34.969 5.905 L 34.969 14.905 L 16.969 14.905 L 16.969 5.905 Z M 223.703 1.681 L 241.678 0.739 L 242.149 9.727 L 224.174 10.669 L 223.703 1.681 Z M 109.03 0.739 L 127.006 1.681 L 126.535 10.669 L 108.559 9.727 L 109.03 0.739 Z M 39.714 5.179 L 57.689 4.236 L 58.16 13.224 L 40.185 14.166 L 39.714 5.179 Z M 178.684 15.753 L 196.659 14.811 L 197.13 23.798 L 179.155 24.741 L 178.684 15.753 Z M 270.142 1.285 L 288.117 2.227 L 287.646 11.215 L 269.671 10.273 L 270.142 1.285 Z M 154.049 14.811 L 172.024 15.753 L 171.553 24.741 L 153.578 23.798 L 154.049 14.811 Z M 62.591 2.227 L 80.566 1.285 L 81.037 10.273 L 63.062 11.215 L 62.591 2.227 Z M 293.019 4.236 L 310.994 5.179 L 310.523 14.166 L 292.548 13.224 L 293.019 4.236 Z" vector-effect="non-scaling-stroke"/></g></svg>